# xmcd
# 
# Track frame offsets:
#     182
#     14070
#     28442
#     49305
#     63237
#     79667
#     97732
#     115825
#     130635
#     149670
#     166702
#     179912
# 
# Disc length: 2688
# 
# Revision: 7
# Processed by: cddbd v1.5.2PL0 Copyright (c) Steve Scherf et al.
# Submitted via: fre:ac v1.0.17
# 
DISCID=a70a7e0c
DTITLE=Judy Collins - Judith
DYEAR=1975
DGENRE=Folk
TTITLE0=The Moon Is A Harsh Mistress
TTITLE1=Angel, Spread Your Wings
TTITLE2=Houses
TTITLE3=The Lovin' Of The Game
TTITLE4=Song For Duke
TTITLE5=Send In The Clowns
TTITLE6=Salt Of The Earth
TTITLE7=Brother, Can You Spare A Dime
TTITLE8=City Of New Orleans
TTITLE9=I'll Be Seeing You
TTITLE10=Pirate Ships
TTITLE11=Born To The Breed
EXTD=
EXTT0=
EXTT1=
EXTT2=
EXTT3=
EXTT4=
EXTT5=
EXTT6=
EXTT7=
EXTT8=
EXTT9=
EXTT10=
EXTT11=
PLAYORDER=
